<?xml version="1.0" standalone="no"?>
<!DOCTYPE svg PUBLIC "-//W3C//DTD SVG 1.1//EN" "http://www.w3.org/Graphics/SVG/1.1/DTD/svg11.dtd" >
<svg xmlns="http://www.w3.org/2000/svg">
<metadata>Generated by IcoMoon</metadata>
<defs>
<font id="icomoon" horiz-adv-x="1024">
<font-face units-per-em="1024" ascent="960" descent="-64" />
<missing-glyph horiz-adv-x="1024" />
<glyph unicode="&#x20;" horiz-adv-x="512" d="" />
<glyph unicode="&#xe900;" glyph-name="icon-13" d="M754.346 476.016c7.296 1.046 14.592 1.046 21.37 0 3.648 8.902 4.688 23.568 1.040 40.33-5.21 24.618-11.987 39.286-26.058 36.666-14.070-2.096-14.592-19.904-9.382-44.522 2.086-13.619 7.299-25.142 13.030-32.474zM632.378 456.64c9.904-4.714 16.157-7.334 18.765-4.714 1.562 1.571 1.040 4.714-1.565 8.902-5.213 8.381-15.114 16.762-26.058 20.95-22.413 9.43-48.992 6.288-69.318-8.378-6.774-5.238-13.027-12.048-11.987-16.24 0.522-1.571 1.565-2.618 3.651-2.618 5.731-0.525 25.014 9.427 47.424 10.477 16.157 1.046 29.187-3.667 39.088-8.381zM612.061 445.107c-13.030-2.093-20.326-6.285-25.018-10.474-4.17-3.667-6.253-7.334-6.253-9.952 0-1.050 0.518-2.096 1.040-2.621 0.522-0.522 1.565-1.046 2.086-1.046 3.126 0 9.901 2.618 9.901 2.618 18.243 6.81 30.749 5.763 42.736 4.192 6.778-0.525 9.904-1.046 11.466 1.046 0.522 0.525 1.043 2.096-0.522 4.192-3.648 5.76-17.197 14.141-35.437 12.045zM713.174 402.17c8.861-4.192 18.762-2.621 21.888 3.667 3.13 6.81-1.562 15.712-10.422 19.904-8.861 4.189-18.762 2.618-21.888-3.667-3.13-6.81 1.562-15.715 10.422-19.904zM771.027 452.454c-7.296 0-13.552-7.859-13.552-17.811s5.734-18.333 13.030-18.333c7.296 0 13.552 7.859 13.552 17.811 0 10.474-5.734 18.333-13.030 18.333zM281.643 271.75c-1.564 2.093-4.691 1.571-7.818 1.046-2.084-0.525-4.169-1.046-6.775-1.046-5.212 0-9.902 2.618-12.508 6.285-3.127 5.238-3.127 12.57 0.521 21.475 0.521 1.046 1.042 2.618 1.564 3.667 5.733 13.094 15.635 35.091 4.691 56.045-8.339 15.712-21.889 25.664-38.046 27.76-15.635 2.096-31.792-3.667-41.694-15.19-16.156-17.808-18.762-42.426-15.635-50.806 1.042-3.142 3.127-4.192 4.169-4.192 2.606-0.522 6.775 1.571 9.381 8.381 0 0.525 0.521 1.050 0.521 2.096 1.042 3.667 3.127 10.477 6.775 15.715 4.17 6.285 10.424 10.998 18.241 12.57s15.635 0 22.41-4.192c11.466-7.331 15.635-21.475 10.945-34.57-2.606-6.806-6.775-19.904-5.733-30.902 1.564-22 15.114-30.378 27.101-31.427 11.466-0.525 19.804 6.285 21.889 10.998 1.564 3.667 0.521 5.238 0 6.288zM954.477 311.549c-0.518 1.571-3.126 12.048-7.296 25.142-4.17 12.573-8.339 22-8.339 22 16.157 24.093 16.157 45.568 14.074 57.616-2.086 15.19-8.339 27.76-20.848 41.379-12.509 13.094-38.045 26.714-74.528 37.187-4.17 1.050-17.718 4.717-18.762 5.238 0 1.050-1.043 45.046-1.565 63.904-0.518 13.616-1.562 35.091-8.336 56.045-7.818 28.283-21.37 53.425-38.57 69.662 47.427 49.236 76.614 103.186 76.614 149.803 0 89.567-109.446 116.28-243.91 60.235 0 0-28.141-12.047-28.662-12.047 0 0-51.597 50.807-52.118 51.331-153.747 134.089-633.746-402.267-480.521-532.165l33.355-28.81c-8.86-22.522-11.987-48.71-9.381-76.474 3.648-35.616 21.889-70.186 51.596-96.899 28.143-25.142 65.668-41.379 101.629-40.854 59.935-138.278 195.962-223.133 355.962-227.846 171.466-5.238 315.83 75.949 375.763 221.037 4.17 9.952 20.848 56.045 20.848 96.899 0.522 40.858-22.41 57.616-37.005 57.616zM252.459 202.602c-5.212-1.046-10.424-1.046-15.635-1.046-51.596 1.571-107.883 48.189-113.616 103.709-6.254 61.283 25.016 108.947 80.26 119.949 6.775 1.571 14.593 2.093 23.453 1.571 30.749-1.571 76.612-25.667 87.036-93.76 9.381-59.709-5.212-120.47-61.498-130.422zM194.608 462.4c-34.397-6.81-64.625-26.189-83.388-53.427-10.945 8.906-31.792 27.238-35.44 34.048-29.186 56.57 32.834 166.563 76.091 228.893 106.84 153.469 274.659 269.75 352.313 248.798 12.509-3.667 54.202-52.379 54.202-52.379s-77.654-43.474-149.578-103.709c-96.937-74.901-170.423-183.85-214.201-302.224zM392.653 672.438c38.048 43.998 84.432 82.758 126.646 104.233 1.565 0.524 3.126-1.047 2.083-2.095-3.126-6.285-9.901-19.38-11.466-29.332-0.522-1.572 1.043-2.619 2.608-1.572 26.058 17.809 71.398 37.189 111.53 39.284 1.565 0 2.605-2.095 1.043-3.143-6.256-4.714-12.509-10.999-17.722-17.809-1.040-1.048 0-2.619 1.565-2.619 28.144 0 67.232-9.952 93.29-24.618 1.565-1.048 0.522-4.19-1.565-3.667-39.088 8.904-102.669 15.714-168.858-0.524-58.893-14.666-104.237-36.665-137.069-60.759-1.565-1.047-3.648 1.048-2.086 2.619zM956.563 240.317c-7.296-45.571-26.579-82.237-58.893-116.282-19.805-21.475-43.258-39.808-70.88-52.902-14.592-7.856-29.706-14.141-46.384-19.379-121.434-39.808-245.994 4.189-286.125 97.946-3.126 7.334-5.731 14.669-7.818 22-17.197 62.33-2.605 136.707 42.736 183.325 2.608 3.142 5.734 6.285 5.734 10.998 0 3.667-2.086 7.859-4.17 10.477-15.635 23.046-70.88 62.33-59.936 138.803 7.818 54.998 55.766 93.235 100.067 91.139 3.648 0 7.296-0.525 11.466-0.525 19.283-1.046 35.962-3.667 52.115-4.189 26.582-1.050 50.554 2.618 78.698 26.189 9.382 7.856 17.2 14.666 30.227 17.284 1.565 0 4.691 1.572 11.469 1.048 6.774-0.524 13.549-2.095 19.283-6.284 22.931-15.19 26.058-51.856 27.101-78.57 0.522-15.19 2.605-52.378 3.126-62.854 1.562-24.093 7.818-27.76 20.848-31.949 7.296-2.621 14.070-4.192 23.971-6.81 30.23-8.381 47.949-17.286 58.893-28.285 6.778-6.81 9.904-14.144 10.944-20.954 3.651-26.189-19.802-58.138-82.342-86.947-68.275-31.949-151.142-39.808-208.47-33.523-4.17 0.525-19.805 2.096-19.805 2.096-45.862 6.285-71.923-53.424-44.301-93.757 17.722-26.189 65.67-43.475 114.138-43.475 110.49 0 195.44 47.664 227.232 88.522 1.043 1.046 1.043 1.571 2.605 3.664 1.565 2.621 0.522 3.667-1.562 2.096-26.061-17.808-140.717-88.518-263.194-67.043 0 0-15.114 2.618-28.666 7.856-10.944 4.189-33.354 14.666-35.958 38.237 99.021-30.902 161.562-1.571 161.562-1.571 1.043 0.525 2.086 1.571 1.565 3.142 0 1.571-1.565 2.618-3.126 2.618 0 0-81.302-12.045-157.917 16.237 8.339 27.238 30.749 17.286 64.106 14.669 60.454-3.667 114.656 5.235 154.787 16.758 34.918 9.952 80.259 29.856 115.699 57.619 11.987-26.192 16.157-55.523 16.157-55.523s9.382 1.571 17.2-3.142c5.731-5.238 11.466-14.666 7.818-38.758z" />
<glyph unicode="&#xe901;" glyph-name="icon-14" d="M928.482 757.895h-832.93c-52.768 0-95.552-43.701-95.552-97.6v-320.351c0-53.897 42.784-97.598 95.552-97.598h396.38l175.691-104.241-35.077 104.241h295.936c52.768 0 95.55 43.701 95.55 97.598v320.351c-0.032 53.899-42.782 97.6-95.55 97.6zM148.935 291.077c-0.134 0-0.268 0-0.435 0-11.492 0.137-22.179 5.99-28.646 15.71-10.185 15.33-25.161 50.648-50.456 188.971-13.569 74.158-23.754 143.971-23.854 144.655-2.848 19.609 10.386 37.849 29.584 40.792 19.197 2.909 37.055-10.609 39.936-30.218 0.101-0.684 10.051-68.923 23.318-141.507 7.672-41.921 14.206-73.201 19.667-96.47 33.135 62.386 73.574 146.263 91.397 184.146 6.533 13.86 20.974 21.936 35.916 20.088s27.071-13.244 30.151-28.301c5.831-28.438 20.908-87.642 42.315-141.37 7.906 76.383 23.186 173.368 52.332 234.385 8.51 17.829 29.55 25.221 47.007 16.529 17.454-8.692 24.692-30.183 16.182-47.979-46.336-97.053-53.27-318.092-53.337-320.315-0.402-14.304-9.114-27.001-22.145-32.305-13.034-5.271-27.909-2.156-37.826 7.974-31.493 32.167-60.173 87.574-85.299 164.708-1.073 3.32-2.145 6.64-3.185 9.89-30.788-62.626-71.294-141.951-94.043-174.393-6.6-9.41-17.254-14.991-28.578-14.991zM694.436 593.969c-14.641 30.355-39.769 51.367-72.602 60.675-37.457 10.609-78.031-3.491-108.552-37.849-36.25-40.655-62.653-116.867-28.211-208.685 23.587-62.933 60.71-74.466 84.698-74.466 2.579 0 4.991 0.137 7.235 0.342 63.825 6.195 117.431 92.432 127.749 151.568 7.405 42.401 3.921 78.881-10.318 108.415zM635.538 498.216c-3.25-18.48-14.576-42.948-28.879-62.283-14.711-19.917-29.117-29.739-36.32-30.424-4.387-0.445-12.495 9.173-19.666 28.335-14.406 38.397-19.265 96.78 14.573 134.731 10.086 11.327 21.811 17.727 31.898 17.727 2.043 0 3.986-0.239 5.829-0.787 37.659-10.712 38.494-53.386 32.566-87.3zM955.5 593.969c-7.338 15.16-17.289 28.028-29.483 38.226-12.264 10.198-26.737 17.761-43.154 22.45-37.422 10.609-77.996-3.491-108.552-37.849-36.182-40.655-62.618-116.867-28.209-208.685 23.587-62.933 60.707-74.466 84.696-74.466 2.582 0 5.061 0.137 7.27 0.342 63.793 6.195 117.396 92.432 127.717 151.568 7.37 42.401 3.918 78.881-10.286 108.415zM896.566 498.216c-3.215-18.48-14.573-42.948-28.847-62.283-14.74-19.917-29.146-29.739-36.349-30.424-4.357-0.445-12.498 9.173-19.666 28.335-14.409 38.397-19.232 96.78 14.573 134.731 10.119 11.327 21.844 17.727 31.895 17.727 2.045 0 3.988-0.239 5.896-0.787 37.624-10.712 38.43-53.386 32.499-87.3z" />
<glyph unicode="&#xe902;" glyph-name="icon-15" d="M692.907 874.667h-361.813c-117.76 0-160.427-42.667-160.427-162.56v-528.213c0-119.893 42.667-162.56 160.427-162.56h361.387c118.187 0 160.853 42.667 160.853 162.56v528.213c0 119.893-42.667 162.56-160.427 162.56zM512 136.533c-40.96 0-74.667 33.707-74.667 74.667s33.707 74.667 74.667 74.667c40.96 0 74.667-33.707 74.667-74.667s-33.707-74.667-74.667-74.667zM597.333 693.333h-170.667c-17.493 0-32 14.507-32 32s14.507 32 32 32h170.667c17.493 0 32-14.507 32-32s-14.507-32-32-32z" />
<glyph unicode="&#xe903;" glyph-name="icon-16" d="M249.098 625.693v99.389c0 70.476 56.707 128 126.18 128s126.178-57.524 126.178-128v-85.233c4.454 0 8.611-0.902 12.768-1.507 30.877 34.034 50.176 79.512 50.176 129.507 0.294 106.316-84.614 192.151-189.122 192.151s-189.122-85.835-189.122-192.151c0-56.621 24.642-106.917 62.941-142.156zM817.059 490.765c-34.736 0-63.238-28.611-63.238-64.15v-10.541c0-6.026-4.752-10.541-10.39-10.541-5.642 0-10.394 4.816-10.394 10.541v53.306c0 35.238-28.205 64.154-63.238 64.154-34.736 0-63.238-28.614-63.238-64.154v-53.306c0-6.026-4.749-10.541-10.39-10.541s-10.39 4.816-10.39 10.541v96.074c0 35.238-28.205 64.15-63.238 64.15s-63.239-28.611-63.239-64.15v-96.074c0-6.026-4.75-10.541-10.391-10.541s-10.391 4.816-10.391 10.541v309.307c0 35.237-28.205 64.15-63.238 64.15s-62.941-28.913-62.941-64.15v-384.002c-11.579 0-21.079 9.638-21.079 21.386v85.232h-20.783c-69.176 0-126.477-56.621-126.477-126.794 0.297-225.28 161.807-385.206 261.267-385.206h264.532c116.086 0 210.202 95.472 210.202 213.232v277.386c0 35.238-28.205 64.15-62.941 64.15z" />
<glyph unicode="&#xe904;" glyph-name="icon-17" d="M906.667 569.603c-98.56 154.88-242.773 244.053-394.667 244.053-75.947 0-149.76-22.187-217.173-63.573-67.413-41.813-128-102.827-177.493-180.48-42.667-66.99-42.667-175.79 0-242.776 98.56-155.307 242.773-244.053 394.667-244.053 75.947 0 149.76 22.187 217.173 63.573 67.413 41.813 128 102.827 177.493 180.48 42.667 66.56 42.667 175.787 0 242.776zM512 275.627c-95.573 0-172.373 77.227-172.373 172.373 0 95.15 76.8 172.376 172.373 172.376s172.373-77.227 172.373-172.376c0-95.147-76.8-172.373-172.373-172.373zM512.017 570.031c-66.987 0-121.6-54.614-121.6-122.027 0-66.987 54.614-121.6 121.6-121.6s122.027 54.613 122.027 121.6c0 66.987-55.040 122.027-122.027 122.027z" />
<glyph unicode="&#xe905;" glyph-name="icon-18" d="M927.574 487.685c-2.132 21.76-20.48 37.972-42.24 37.972h-322.132c-23.468 0-42.668-19.2-42.668-42.666v-72.96c0-23.468 19.2-42.668 42.668-42.668h192.426c-4.694-39.252-30.294-98.557-87.040-138.237-36.266-25.174-84.48-42.668-148.054-42.668-2.986 0-5.546 0-8.532 0.428-108.8 3.412-200.96 76.372-234.24 176.637-8.961 26.88-14.081 55.043-14.081 84.483s5.12 58.026 13.652 84.48c2.56 7.68 5.548 15.357 8.96 23.037 39.254 88.32 125.014 150.615 225.708 153.602 2.56 0.427 5.546 0.427 8.532 0.427 61.014 0 106.668-20.052 138.668-42.24 16.64-11.52 38.826-8.96 53.332 5.12l59.308 58.026c18.772 18.347 17.066 49.494-4.268 64.854-67.84 49.92-150.612 79.359-247.040 79.359-2.986 0-5.546-0.001-8.532-0.427-163.414-2.987-303.788-97.707-372.481-234.667-29.013-58.026-45.653-122.88-45.653-191.572 0-68.694 16.64-133.548 45.653-191.574h0.427c68.693-136.96 209.066-231.68 372.054-234.666 2.986-0.428 5.546-0.428 8.532-0.428 115.2 0 212.054 37.974 282.454 103.254 80.64 74.668 127.146 183.894 127.146 314.026 0 18.348-0.852 34.134-2.56 49.068z" />
<glyph unicode="&#xe906;" glyph-name="icon-1" d="M608.004 107.581h-192.035c-41.112 0-74.711 33.33-74.711 74.524v361.571c0 41.007 33.412 74.524 74.711 74.524h192.035c41.109 0 74.711-33.33 74.711-74.524v-361.571c-0.187-41.194-33.602-74.524-74.711-74.524zM234.65 235.289c-12.952 0-25.717 5.805-34.165 17.039l-64.012 85.197c-11.451 15.167-11.451 35.951 0 51.118l64.012 85.197c14.079 18.725 40.923 22.657 59.694 8.426 18.772-14.043 22.714-40.82 8.447-59.544l-44.677-59.544 44.864-59.544c14.079-18.725 10.325-45.501-8.447-59.544-7.884-6.179-16.707-8.801-25.717-8.801zM789.176 235.292c-8.824 0-17.835 2.809-25.53 8.426-18.771 14.043-22.715 40.82-8.449 59.544l44.866 59.544-44.866 59.544c-14.079 18.725-10.322 45.501 8.449 59.544 18.771 14.231 45.615 10.299 59.693-8.426l64.012-85.197c11.451-15.167 11.451-35.951 0-51.118l-64.012-85.197c-8.259-10.86-21.024-16.665-34.164-16.665zM895.977 916.114h-767.953c-70.582 0-128.023-57.297-128.023-127.702v-680.825c0-70.404 57.442-127.702 128.023-127.702h767.953c70.583 0 128.023 57.297 128.023 127.702v680.825c0 70.404-57.441 127.702-128.023 127.702zM895.977 65.083h-767.953c-23.465 0-42.612 19.099-42.612 42.505v595.816h853.178v-595.816c0-23.593-19.149-42.505-42.613-42.505z" />
<glyph unicode="&#xe907;" glyph-name="icon-2" d="M1024 247.638c0-9.901-6.486-18.093-15.36-21.165l-207.19-67.923-67.923-207.19c-3.072-8.874-11.264-15.36-21.165-15.36-9.555 0-17.408 6.144-20.819 14.336l-178.176 467.286c-1.024 2.73-1.366 5.12-1.366 8.192 0 12.288 9.898 22.186 22.186 22.186 2.733 0 5.462-0.342 7.853-1.706l467.626-178.176c8.192-2.733 14.336-10.925 14.336-20.48zM469.334 21.334c-258.732 0-469.334 210.602-469.334 469.331 0 258.732 210.603 469.334 469.334 469.334s469.331-210.603 469.331-469.334c0-20.819-1.363-41.299-4.096-61.098-3.072-23.21-24.576-39.594-48.128-36.522-23.21 3.072-39.594 24.915-36.522 48.128 2.048 15.699 3.072 32.426 3.072 49.491 0.342 211.628-172.032 384.001-383.658 384.001-211.628 0-384.001-172.373-384.001-384.001 0-211.626 172.373-384 384.001-384 16.723 0 33.45 1.024 49.491 3.414 23.213 3.414 44.717-13.312 48.128-36.522 3.072-23.213-13.312-44.717-36.522-48.128-19.798-2.733-40.278-4.096-61.098-4.096zM449.194 235.344c-1.366 0-2.733 0-4.096 0-132.438 12.288-232.449 121.856-232.449 255.318 0 141.312 115.028 256.681 256.683 256.681 133.462 0 243.37-100.011 255.318-232.79 2.048-23.552-15.36-44.371-38.573-46.419-23.891-1.709-44.032 15.36-46.419 38.57-7.853 88.406-81.238 155.307-170.326 155.307-94.55 0-171.349-76.801-171.349-171.348 0-88.749 66.559-162.134 154.965-170.326 23.552-2.048 40.618-22.87 38.57-46.422-2.048-21.843-20.819-38.57-42.323-38.57z" />
<glyph unicode="&#xe908;" glyph-name="icon-3" d="M331.994 150.298c49.427-44.771 115.594-71.939 187.984-71.939 153.738 0 278.282 122.451 278.282 273.603 1.168 150-121.821 272.454-274.387 273.6-1.168 0-2.336 0-3.504 0-95.357 0-179.424-47.066-229.242-119.008h-254.93c-19.85 0-36.196-16.070-36.196-35.587 0-19.514 16.347-35.587 36.196-35.587h218.733c-7.395-22.576-11.676-46.685-12.844-71.174h-157.628c-19.85 0-36.196-16.070-36.196-35.587s16.347-35.587 36.196-35.587h163.856c5.838-25.254 14.79-49.363 27.244-71.174h-239.361c-19.85-0.765-36.196-16.454-36.196-36.352 0-19.517 16.347-35.587 36.196-35.587h290.348c1.946 0 3.891 0.381 5.45 0.381zM517.645 423.517c8.56 0 17.514-1.146 25.686-4.208l49.43 42.474c15.178 13.011 38.141 11.482 51.373-3.443 13.235-14.922 11.677-37.501-3.501-50.512l-49.43-42.093c0.778-4.592 1.558-8.8 1.558-13.392 0.778-40.179-31.917-73.088-72.394-73.472-40.477-0.381-74.339 31.379-74.726 71.178-1.168 39.795 31.136 72.704 72.003 73.469zM985.094 844.443l-163.078 102.553c-39.309 24.49-91.853 13.393-116.762-25.256l-26.077-40.179c-24.909-38.649-13.622-90.308 25.69-114.798l50.986-32.143-17.126-26.404c-138.557 82.272-319.149 82.272-460.819-14.541-16.347-11.097-20.628-33.674-8.952-49.746 11.287-16.073 34.25-20.281 50.596-8.803 120.265 82.273 280.23 82.273 400.883 0 158.797-108.675 198.106-323.731 87.571-479.856s-329.267-194.774-488.064-86.099c-16.347 11.098-38.921 7.27-50.597-8.8-11.287-16.070-7.395-38.266 8.952-49.747 70.836-48.595 155.293-74.618 241.697-74.618s170.861 26.022 241.696 74.618c191.878 131.254 238.973 390.698 105.475 579.35-20.24 28.698-43.981 54.337-69.667 76.532l19.459 30.23 50.986-32.143c39.312-24.49 91.466-13.393 116.762 25.256l26.077 40.179c25.299 38.649 13.622 89.925-25.686 114.416z" />
<glyph unicode="&#xe909;" glyph-name="icon-4" d="M278.078 266.948c-14.312 14.8-39.188 16.866-55.204 4.475l-0.341 0.343-36.803-37.174c-8.178-8.261-12.608-18.929-12.608-30.289-0.341-23.061 19.764-43.713 42.596-43.026 13.29-0.343 25.217 6.542 34.077 16.523l28.283 28.57c5.793 5.852 9.882 13.423 11.586 21.685 3.067 13.767-1.363 28.913-11.586 38.894zM175.85 393.261c-16.698 16.866-43.618 16.866-60.315 0-3.748-3.786-27.602-27.88-32.032-32.352-38.507-41.993 18.742-99.819 60.315-60.925 0 0 27.943 28.223 32.032 32.355 16.698 16.866 16.698 44.056 0 60.922zM365.309 168.852c-11.243 0-22.149-4.472-30.325-12.734l-32.373-32.699c-16.017-16.179-16.017-44.746 0.34-60.582 16.697-16.866 43.616-16.866 60.317 0l32.37 32.702c26.582 26.504 7.496 73.312-30.328 73.312zM651.556 646.946c-65.768-41.994-154.028-34.076-211.616 23.75l-74.629 75.38 93.030 93.967c-99.846 113.242-276.021 120.471-382.34 12.391-106.66-107.047-99.844-284.656 12.268-385.852 81.443 46.125 181.969-18.242 175.153-112.209 53.842-5.852 99.843-55.416 102.229-109.8 50.775 1.033 101.207-37.174 113.477-88.115 42.252 11.357 89.621-2.753 118.585-36.485l1.021 1.033c41.915-25.474 86.555 26.847 54.865 65.054-0.684 0.687-169.361 171.068-169.361 171.068 13.288 13.423 39.87 40.27 53.158 53.694l167.656-169.346c41.574-38.897 98.822 18.929 60.317 60.922l-167.656 169.349c13.291 13.423 39.87 40.27 53.158 53.694 37.828-38.204 129.15-130.452 167.659-169.346 16.014-16.866 44.297-16.523 60.314 0 16.697 16.866 16.697 44.056 0 60.922l-227.289 229.928zM947.339 852.43c-101.888 102.916-268.183 102.916-370.071 0-19.766-19.963-86.555-87.427-105.297-106.358l21.468-21.685c37.144-37.518 97.461-37.518 134.602 0l26.582 26.847c14.312-14.456 273.974-276.738 281.47-284.309 111.773 101.195 118.245 278.458 11.246 385.504zM539.428 72.129c-16.697 16.866-43.616 16.866-60.314 0l-32.033-32.352c-16.697-16.179-16.697-44.749 0-60.925 16.017-16.523 44.3-16.523 60.317 0l32.030 32.355c16.357 15.833 16.357 44.746 0 60.922z" />
<glyph unicode="&#xe90a;" glyph-name="icon-5" d="M651.604 401.58c-7.849-301.74-93.184-465.58-139.604-465.58s-130.732 163.84-139.604 465.58h279.209zM512 960c-46.42 0-130.732-163.84-139.604-465.58h279.209c-8.873 301.74-93.184 465.58-139.604 465.58zM744.788 494.42h279.212c-20.14 211.286-167.936 388.097-372.396 445.1 57.344-106.155 87.383-273.067 93.184-445.1zM279.211 401.58h-279.211c20.139-211.287 167.936-388.096 372.396-445.1-57.344 106.156-87.382 273.068-93.185 445.1zM744.788 401.58c-4.777-171.692-34.816-338.944-90.452-445.1 203.092 58.028 349.868 234.496 369.664 445.1h-279.212zM279.211 494.42c4.778 172.033 34.817 338.945 90.453 445.1-202.411-58.709-348.16-235.179-367.275-445.1h276.821z" />
<glyph unicode="&#xe90b;" glyph-name="icon-6" d="M0 633.275c0 163.84 130.992 296.607 292.642 296.607 60.988 0 117.711-18.943 164.601-51.345-56.889-65.303-91.482-151.211-91.482-245.262 0-10.135 0.328-20.273 1.147-30.242-98.53-43.204-174.765-129.111-205.586-234.794-95.744 48.688-161.322 149.218-161.322 265.036zM230.507 343.486c22.461 80.592 77.711 147.224 150.336 184.278 15.249-52.341 41.644-99.698 76.399-139.577-46.887-32.404-103.614-51.348-164.601-51.348-21.313 0-42.134 2.328-62.135 6.647zM804.644 262.728c0 2.491 0 4.984-0.166 7.478-23.606-4.819-48.035-7.478-73.12-7.478-82.299 0-158.371 27.585-219.356 74.11-61.154-46.526-137.059-74.11-219.359-74.11-25.083 0-49.511 2.491-73.119 7.478 0-2.494-0.164-4.987-0.164-7.478 0-163.84 130.992-296.608 292.643-296.608 161.647 0 292.641 132.768 292.641 296.608zM1024 633.275c0-115.984-65.578-216.348-161.322-265.036-30.985 105.683-107.056 191.59-205.586 234.794 0.819 9.969 1.147 20.107 1.147 30.242 0 94.050-34.593 179.792-91.482 245.262 47.053 32.403 103.614 51.345 164.765 51.345 161.485 0 292.478-132.767 292.478-296.607zM793.648 343.486c-22.462 80.592-77.71 147.224-150.338 184.278-15.246-52.341-41.641-99.698-76.399-139.577 46.89-32.404 103.614-51.348 164.602-51.348 21.314 0 41.969 2.328 62.136 6.647zM511.988 437.197c28.527 32.735 50.004 72.114 62.136 115.317-20.001 4.322-40.821 6.647-62.136 6.647-21.311 0-42.135-2.325-62.136-6.647 12.131-43.204 33.608-82.583 62.136-115.317zM512.015 633.277c25.082 0 49.51-2.492 73.12-7.477 0 2.491 0.163 4.985 0.163 7.477 0 75.273-27.543 143.9-73.12 196.076-45.577-52.342-73.12-120.969-73.12-196.076 0-2.492 0-4.986 0.166-7.477 23.278 4.985 47.706 7.477 72.791 7.477z" />
<glyph unicode="&#xe90c;" glyph-name="icon-7" d="M1024 396.8v-409.6c0-28.394-22.806-51.2-51.2-51.2h-409.6c-28.394 0-51.2 22.806-51.2 51.2v409.6c0 28.394 22.806 51.2 51.2 51.2h409.6c28.394 0 51.2-22.806 51.2-51.2zM256 755.2c-28.393 0-51.2-22.807-51.2-51.2v-460.8c0-28.394 22.807-51.2 51.2-51.2h153.6v332.8c0 13.965 11.635 25.6 25.6 25.6h332.8v153.6c0 28.393-22.806 51.2-51.2 51.2h-460.8zM51.2 396.8h51.2v435.2c0 13.964 11.636 25.6 25.6 25.6h435.2v51.2c0 28.393-22.806 51.2-51.2 51.2h-460.8c-28.393 0-51.2-22.807-51.2-51.2v-460.8c0-28.394 22.807-51.2 51.2-51.2z" />
<glyph unicode="&#xe90d;" glyph-name="icon-8" d="M384.115 960c-117.492 0-213.295-95.802-213.295-213.296s95.803-213.296 213.295-213.296c117.494 0 213.296 95.802 213.296 213.296s-95.802 213.296-213.296 213.296zM707.37-63.094c-17.171 3.914-28.016 21.088-24.099 38.259l63.866 277.466c3.917 17.171 21.091 28.016 38.262 24.099 17.171-3.914 28.016-21.088 24.099-38.259l-63.866-277.466c-3.917-17.773-21.693-28.016-38.262-24.099zM885.418-21.216c-8.736 0-17.472 3.616-23.798 10.544-11.75 13.254-10.845 33.44 2.41 45.19l80.138 72.304-80.138 72.301c-13.254 11.75-14.16 31.936-2.41 45.19 11.75 13.258 31.933 14.16 45.19 2.41l106.646-96.102c6.627-6.026 10.544-14.762 10.544-23.798 0-9.040-3.917-17.776-10.544-23.802l-106.646-96.102c-6.326-5.424-13.859-8.134-21.392-8.134zM607.949-21.216c-7.533 0-15.363 2.71-21.389 8.134l-106.65 96.102c-6.627 6.026-10.544 14.762-10.544 23.802 0 9.037 3.917 17.773 10.544 23.798l106.65 96.102c13.254 11.75 33.44 10.848 45.19-2.41 11.747-13.254 10.845-33.44-2.413-45.19l-80.134-72.301 80.134-72.304c13.258-11.75 14.16-31.936 2.413-45.19-6.326-6.928-15.066-10.544-23.802-10.544zM394.656 106.822c0 33.139 14.16 64.771 38.563 87.066l106.646 96.106c21.693 19.581 49.408 30.125 78.33 30.125 24.102 0 47.299-7.533 66.579-21.088 15.066 28.32 40.371 49.408 70.496 58.445-36.451 54.528-98.211 90.682-168.707 90.682h-383.812c-111.769 0-202.751-90.982-202.751-202.752v-170.515c0-17.776 14.461-31.936 31.934-31.936h382.306c-12.352 18.678-19.584 40.672-19.584 63.869z" />
<glyph unicode="&#xe90e;" glyph-name="icon-9" d="M694.106 482.931c82.877 0 150.064 67.187 150.064 150.067 0 82.877-67.187 150.064-150.064 150.064-82.88 0-150.067-67.187-150.067-150.064 0-82.88 67.187-150.067 150.067-150.067zM496.906 220.842c-35.139-35.139-35.139-92.189 0-127.328s92.189-35.139 127.331 0l303.024 306.33c133.942 133.946 131.046 360.902-24.39 488.644-129.395 106.244-327.83 92.602-451.85-31.419l-293.518-296.822c-35.14-35.139-35.14-92.189 0-127.328 35.139-35.142 92.189-35.142 127.328 0l64.078 67.382c12.403 12.403 30.592 10.336 41.341-1.238 12.816-13.645 11.987-30.592 0.413-41.754l-148.825-151.722c-35.139-35.139-35.139-92.189 0-127.328s92.188-35.139 127.328 0l148.826 151.722c8.682 8.682 21.085 11.162 32.659 5.786 19.43-9.094 25.216-33.072 10.336-47.955l-64.080-66.97zM545.69 484.592c-81.856 81.853-81.856 214.97 0 296.824 81.853 81.854 214.97 81.854 296.822 0s81.853-214.971 0-296.824c-81.853-81.853-214.97-81.853-296.822 0zM153.776-37.952l46.301 46.301c35.139 35.139 35.139 92.189 0 127.328s-92.189 35.139-127.328 0l-46.301-46.301c-35.139-35.139-35.139-92.189 0-127.328 35.139-34.726 92.189-34.726 127.328 0z" />
<glyph unicode="&#xe90f;" glyph-name="icon-10" d="M1021.181 472.474l-75.409-304.974c-21.143-82.983-95.846-140.433-180.414-140.433h-113.465c-61.314 0-121.218 14.185-176.188 41.845l-19.733 10.641c-40.876 19.857-84.57 33.334-129.675 39.008v439.022l203.674 273.061c33.123 43.264 94.437 51.775 137.427 19.15 33.123-25.533 47.218-68.797 33.828-109.224l-49.333-151.778h279.079c51.447 0 93.027-41.845 93.027-93.621 0-7.8-0.705-15.604-2.819-22.697zM232.567 120.687v421.292c0 25.534-21.142 46.812-46.513 46.812h-139.54c-25.371 0-46.513-21.278-46.513-46.812v-421.292c0-25.531 21.142-46.809 46.513-46.809h139.54c26.076 0 46.513 20.567 46.513 46.809z" />
<glyph unicode="&#xe910;" glyph-name="icon-11" d="M0 960h204.715v-1024h-204.715v1024zM409.428 140.716h614.572v-204.716h-614.572v204.716zM409.428 550.561h614.572v-204.716h-614.572v204.716zM409.428 960h614.572v-204.715h-614.572v204.715z" />
<glyph unicode="&#xe911;" glyph-name="icon-12" d="M282.155 874.722c13.474 0 24.569-10.725 24.569-23.749s-10.699-24.132-24.569-24.132c-13.87 0-24.57 10.725-24.57 24.132s11.096 23.749 24.57 23.749zM67.368 929.882c-36.854 0-67.368-29.495-67.368-65.119v-92.699h1024v92.699c0 36.007-30.515 65.119-67.367 65.119h-889.264zM187.443 874.722c13.474 0 24.57-10.725 24.57-23.749s-11.096-24.132-24.57-24.132c-13.473 0-24.966 10.725-24.966 24.132s11.096 23.749 24.966 23.749zM92.334 874.722c13.474 0 24.57-10.725 24.57-23.749s-10.7-24.132-24.57-24.132c-13.87 0-24.57 10.725-24.57 24.132s11.096 23.749 24.57 23.749zM0 754.441v-723.206c0-36.009 30.514-65.12 67.368-65.12h888.867c37.25 0 67.367 29.497 67.367 65.12v723.206h-1023.602zM227.864 604.283c31.306 0 56.669-24.516 56.669-54.775 0-30.262-25.362-54.778-56.669-54.778s-56.669 24.516-56.669 54.778c0 30.259 25.362 54.775 56.669 54.775zM227.864 443.784c20.21 0 38.043 10.342 47.951 25.666 29.72-3.448 53.103-28.347 53.103-58.226v-58.606h-202.107v58.606c0 29.88 23.381 54.395 53.102 58.226 9.907-15.706 27.74-25.666 47.951-25.666zM150.985 256.852h154.155l-32.496-27.196-28.136-23.748-10.7-9.195c-1.585-1.147-3.567-1.915-5.152-1.915-1.981 0-3.963 0.768-5.152 1.915l-11.888 9.195-28.136 23.748-32.495 27.196zM284.136 217.016l35.665 29.88v-94.232l-56.272 47.116 20.607 17.236zM171.591 217.016l20.607-17.236-56.272-47.116v94.232l35.666-29.88zM205.672 188.286l5.152-4.213c4.756-4.213 11.096-6.129 17.040-6.129s11.889 1.915 17.040 6.129l5.152 4.213 22.588-18.769 32.496-27.196h-154.155l32.495 27.196 22.192 18.769zM387.566 533.037h509.624v-109.556h-509.624v109.556zM387.566 254.172h509.624v-109.553h-509.624v109.553z" />
<glyph unicode="&#xe912;" glyph-name="close" d="M605.653 448l398.933 398.933c11.993 11.94 19.414 28.462 19.414 46.718 0 0.076 0 0.151 0 0.227v-0.012c0.003 0.238 0.005 0.52 0.005 0.802 0 18.005-7.435 34.274-19.403 45.903l-0.015 0.015c-11.644 11.983-27.913 19.418-45.918 19.418-0.282 0-0.563-0.002-0.845-0.005h0.043c-0.064 0-0.139 0-0.215 0-18.256 0-34.779-7.421-46.716-19.411l-398.935-398.935-398.933 398.933c-11.94 11.993-28.462 19.414-46.718 19.414-0.076 0-0.151 0-0.227 0h0.012c-0.238 0.003-0.52 0.005-0.802 0.005-18.005 0-34.274-7.435-45.903-19.403l-0.015-0.015c-11.983-11.644-19.418-27.913-19.418-45.918 0-0.282 0.002-0.563 0.005-0.845v0.043c0-0.064 0-0.139 0-0.215 0-18.256 7.421-34.779 19.411-46.716l398.935-398.935-398.933-398.933c-11.993-11.94-19.414-28.462-19.414-46.718 0-0.076 0-0.151 0-0.227v0.012c-0.003-0.238-0.005-0.52-0.005-0.802 0-18.005 7.435-34.274 19.403-45.903l0.015-0.015c11.644-11.983 27.913-19.418 45.918-19.418 0.282 0 0.563 0.002 0.845 0.005h-0.043c0.064 0 0.139 0 0.215 0 18.256 0 34.779 7.421 46.716 19.411l398.935 398.935 398.933-398.933c11.94-11.993 28.462-19.414 46.718-19.414 0.076 0 0.151 0 0.227 0h-0.012c36.476 0.121 66.012 29.658 66.133 66.122v0.012c0 0.064 0 0.139 0 0.215 0 18.256-7.421 34.779-19.411 46.716l-0.002 0.002z" />
<glyph unicode="&#xe913;" glyph-name="hello" d="M256 755.2c0 28.276 22.924 51.2 51.2 51.2h665.6c28.276 0 51.2-22.924 51.2-51.2s-22.924-51.2-51.2-51.2h-665.6c-28.276 0-51.2 22.926-51.2 51.2zM972.8 499.2h-921.6c-28.276 0-51.2-22.926-51.2-51.2 0-28.276 22.924-51.2 51.2-51.2h921.6c28.276 0 51.2 22.924 51.2 51.2 0 28.274-22.924 51.2-51.2 51.2zM972.8 192h-460.8c-28.274 0-51.2-22.924-51.2-51.2 0-28.274 22.926-51.2 51.2-51.2h460.8c28.276 0 51.2 22.926 51.2 51.2 0 28.276-22.924 51.2-51.2 51.2z" />
</font>
</defs>
</svg>
