<svg width="56" height="39" viewBox="0 0 56 39" fill="none" xmlns="http://www.w3.org/2000/svg">
<path opacity="0.4" d="M52.4706 27.888C48.9306 33.408 42.6506 36.528 36.0806 35.828C29.5206 35.128 23.7206 30.628 20.6006 24.938C21.7406 24.488 22.8306 23.918 23.8206 23.188C25.5506 21.908 27.2406 20.178 27.6006 17.968C27.9206 15.978 26.9506 14.128 25.2406 13.108C21.4406 10.838 17.2606 13.738 16.2806 17.618C15.8206 19.438 15.9906 21.278 16.5406 23.068C12.8306 23.578 8.87063 22.558 6.16063 20.008C1.15063 15.298 1.28063 6.42803 6.17063 1.71803C7.12063 0.808027 5.69063 -0.601976 4.73063 0.278024C-0.919372 5.49802 -1.61937 14.848 3.23063 20.818C6.62063 24.988 12.3806 26.678 17.6306 25.768C18.4506 27.378 19.4906 28.878 20.5406 30.188C23.1906 33.498 26.7106 36.068 30.6606 37.598C39.2406 40.918 50.6206 37.898 55.0806 29.418C56.0006 27.688 53.5206 26.238 52.4706 27.888ZM21.4006 15.418C22.5106 14.968 24.1706 15.388 24.6606 16.578C25.3006 18.148 23.4406 19.858 22.3506 20.698C21.4806 21.368 20.5206 21.898 19.5006 22.298C18.7006 19.688 18.6106 16.548 21.4006 15.418Z" fill="#FF6854"/>
</svg>
