<svg width="100" height="132" viewBox="0 0 100 132" fill="none" xmlns="http://www.w3.org/2000/svg">
<g opacity="0.4">
<path d="M81.0669 64.2075C76.363 65.9475 71.952 69.96 68.6016 74.6916C67.4478 72.0595 65.6417 69.818 62.8593 68.4375C56.3138 65.1973 50.9265 71.225 48.5124 76.729C41.6607 92.3486 49.8748 111.08 59.2249 124.005C58.5149 124.702 57.8048 125.403 57.1081 126.109C54.3169 128.923 58.8388 133.246 61.8786 131.001C71.6547 123.779 81.1157 115.146 88.1449 105.167C94.0026 96.8494 100.566 84.9316 98.1029 74.4297C96.3101 66.813 88.8416 61.3312 81.0669 64.2075ZM83.7028 97.2445C78.2756 105.816 70.958 112.749 63.6847 119.704C58.7323 111.723 55.0047 102.322 53.6468 93.0677C53.0166 88.7711 53.4382 84.6076 55.129 80.5684C56.2916 77.7898 57.7605 73.4666 61.6611 78.4245C63.3696 80.595 62.8149 85.6773 62.7084 88.0209C62.4821 92.9878 69.569 94.1019 70.4565 89.0685C71.1444 85.1802 73.1812 82.1353 75.6042 79.117C77.8674 76.294 82.7177 70.0932 86.9601 71.5801C96.1504 74.7893 86.6938 92.5173 83.7028 97.2445Z" fill="#FF6854"/>
<path d="M40.729 19.9984C36.46 17.4151 30.8953 17.7347 26.9724 20.8684C23.2759 23.8246 22.0466 28.0546 22.344 32.3468C16.9833 30.1852 11.0946 29.111 5.96024 32.3868C0.84366 35.6536 -0.931406 42.1518 0.453134 47.8511C4.58013 64.8201 26.4754 62.9558 39.5087 61.0605C40.7601 60.8785 41.5056 60.1062 41.7941 59.1874C41.9183 58.9921 42.0248 58.7657 42.1003 58.5083C45.1223 48.3748 52.8038 27.3 40.729 19.9984ZM13.7216 53.9187C9.03108 51.7305 4.41594 46.0356 7.08295 40.5717C10.7129 33.1236 20.2006 37.7265 25.4414 40.3231C27.7401 41.4638 30.2695 38.7607 29.3199 36.5014C28.0729 33.5275 27.5049 29 29.5462 26.1593C31.6896 23.181 37.2544 23.869 39.3312 26.4922C41.621 29.3951 40.9243 34.3353 40.4317 37.6288C39.5309 43.6654 37.849 49.5289 36.8994 55.5655C29.3288 56.3733 20.6488 57.1545 13.7216 53.9187Z" fill="#FF6854"/>
<path d="M70.5363 26.0661C78.7814 25.5778 82.5623 36.568 83.1303 43.1949C83.2546 44.6597 85.4379 44.6153 85.6553 43.2082C86.8313 35.6891 90.6521 28.4008 98.023 25.4713C99.6871 24.81 99.2034 22.5817 97.6236 22.2267C88.8416 20.2692 85.6686 8.94173 84.3684 1.21401C84.0933 -0.428294 81.8833 -0.37503 81.5372 1.19626C80.095 7.6989 77.7475 18.9243 71.5614 22.8126C71.0954 22.777 70.6206 22.7637 70.1325 22.7815C68.0157 22.8791 68.4107 26.1948 70.5363 26.0661ZM83.0283 8.38689C84.7678 14.8807 87.6922 21.3744 93.4301 24.2906C89.2809 27.2557 86.4718 31.5789 84.7634 36.3993C83.2856 30.8643 79.984 25.5557 74.9695 23.5849C79.2784 20.0695 81.6215 14.1172 83.0283 8.38689Z" fill="#FF6854"/>
<path d="M30.4736 91.7583C29.1512 91.7538 27.8332 91.8249 26.5197 91.8959C26.4842 90.7063 26.4132 89.5168 26.3422 88.3494C26.2224 86.352 23.187 86.7559 23.2758 88.7267C23.3246 89.8319 23.3157 90.9371 23.2936 92.0423C22.3794 92.0645 21.4697 92.0645 20.5555 92.0068C18.137 91.8604 17.5823 95.5578 20.0452 95.7797C21.1102 95.8774 22.1664 95.9439 23.2048 95.9528C23.1915 97.2578 23.2181 98.5628 23.3468 99.8633C23.4622 101.013 25.326 101.381 25.6854 100.183C26.1159 98.7492 26.3511 97.2711 26.4576 95.7753C28.0507 95.5578 29.6127 95.1317 31.1393 94.3771C32.5948 93.6713 32.0091 91.7672 30.4736 91.7583Z" fill="#FF6854"/>
</g>
</svg>
