<svg width="99" height="85" viewBox="0 0 99 85" fill="none" xmlns="http://www.w3.org/2000/svg">
<g opacity="0.5">
<path fill-rule="evenodd" clip-rule="evenodd" d="M59.5382 35.3066C59.5154 33.6612 59.2995 32.0016 58.8675 30.3307C57.3527 24.4669 50.5943 20.7023 43.4011 19.8172C36.2107 18.9321 28.7333 20.9463 25.8515 26.047C24.2031 28.9633 23.9757 31.4768 24.6493 33.596C25.32 35.7037 26.9114 37.4512 29.0714 38.8129C35.0937 42.6058 45.6406 43.3803 50.4522 41.7945C52.6775 41.0597 54.8516 40.1747 56.9689 39.1619C55.7582 45.7917 51.2479 52.0725 45.2284 57.7321C32.1465 70.0328 11.8458 79.3689 0.790264 82.8015C0.196277 82.9859 -0.133428 83.6157 0.0513047 84.2086C0.236038 84.8015 0.86696 85.1334 1.46095 84.9491C12.7353 81.4483 33.4312 71.9136 46.7717 59.369C53.6637 52.8896 58.5747 45.5959 59.4131 37.9279C74.9932 29.6187 87.7881 14.5435 98.7271 1.85704C99.1336 1.38895 99.0796 0.676872 98.6078 0.271199C98.136 -0.131637 97.4254 -0.0805958 97.019 0.390325C86.5262 12.5577 74.3481 27.0314 59.5382 35.3066ZM57.2731 36.5123C57.3584 34.6626 57.1764 32.7846 56.6847 30.8896C55.3745 25.8144 49.3523 22.813 43.1254 22.047C39.3085 21.579 35.3837 21.9648 32.3057 23.3378C30.3703 24.2002 28.7758 25.4513 27.8152 27.1534C26.5534 29.386 26.2805 31.2953 26.7977 32.9151C27.315 34.5463 28.5997 35.8569 30.2737 36.9094C35.7617 40.3675 45.3649 41.1024 49.7445 39.6584C52.3279 38.8073 54.8347 37.7463 57.2731 36.5123Z" fill="#FF6854"/>
</g>
</svg>
