<svg width="29" height="29" viewBox="0 0 29 29" fill="none" xmlns="http://www.w3.org/2000/svg">
<g opacity="0.5" clip-path="url(#clip0_745_3064)">
<path fill-rule="evenodd" clip-rule="evenodd" d="M3.69305 12.8267C4.98689 12.3656 6.34843 11.7529 7.39838 10.8658C8.64538 9.81214 9.15252 8.45511 9.49308 7.02668C9.93032 5.1915 10.105 3.23658 10.6352 1.39842C10.8315 0.715806 11.2093 0.457776 11.3714 0.343263C11.7811 0.0540068 12.1953 -0.0233112 12.5849 0.00568877C13.0467 0.0391503 13.681 0.213882 14.0981 0.987959C14.1576 1.09875 14.2349 1.26756 14.287 1.49881C14.3249 1.66835 14.3494 2.19852 14.3896 2.41714C14.49 2.9555 14.574 3.49387 14.6528 4.03521C14.9153 5.83692 15.0663 7.36721 15.8954 9.02244C17.0204 11.2696 18.1477 12.6445 19.6765 13.2535C21.1548 13.8424 22.9223 13.7316 25.1806 13.2699C25.3955 13.2178 25.6081 13.1732 25.8186 13.1367C26.8142 12.9627 27.766 13.6164 27.9616 14.6083C28.1572 15.5995 27.5244 16.5654 26.5376 16.7833C26.3317 16.8287 26.1287 16.8718 25.9279 16.9112C22.8762 17.6667 19.3434 20.3629 17.2903 22.7238C16.6575 23.4518 15.731 25.487 14.7859 26.7853C14.0885 27.7431 13.3047 28.3744 12.6466 28.5975C12.2057 28.7477 11.8339 28.7246 11.5268 28.6488C11.0806 28.5387 10.7103 28.297 10.4263 27.9126C10.2716 27.7022 10.1281 27.4203 10.0597 27.0604C10.027 26.8872 10.0233 26.447 10.024 26.2477C9.83141 25.5852 9.59569 24.9382 9.42392 24.2698C9.0142 22.6748 8.21037 21.665 7.2556 20.331C6.36255 19.0825 5.40335 18.298 3.99722 17.6719C3.8143 17.6273 2.33827 17.2659 1.81701 17.0584C1.05557 16.7543 0.692682 16.2449 0.561067 15.9705C0.337246 15.5051 0.314215 15.0983 0.35883 14.7593C0.42501 14.2588 0.649576 13.8305 1.04814 13.4848C1.29501 13.2699 1.66384 13.0609 2.15758 12.959C2.53904 12.8794 3.55102 12.8334 3.69305 12.8267ZM12.3522 10.2271C12.4206 10.3795 12.4935 10.5327 12.5708 10.6873C14.2186 13.9785 16.0612 15.8159 18.3009 16.7075L18.376 16.7365C16.8777 17.8489 15.5213 19.0921 14.4848 20.2841C14.0579 20.7749 13.4928 21.7944 12.8824 22.8398C12.3276 21.0366 11.4205 19.7621 10.2798 18.1671C9.4083 16.9499 8.49518 16.0338 7.3731 15.2872C8.24384 14.8403 9.07442 14.3168 9.79794 13.7056C11.0026 12.6876 11.7989 11.5083 12.3522 10.2271Z" fill="#3AC4E5"/>
</g>
<defs>
<clipPath id="clip0_745_3064">
<rect width="29" height="29" fill="white"/>
</clipPath>
</defs>
</svg>
