<svg width="166" height="48" viewBox="0 0 166 48" fill="none" xmlns="http://www.w3.org/2000/svg">
<path d="M18.9545 17.9995H12.9692L11.9717 30.9995C12.6367 31.9995 14.1663 34.1995 14.9643 34.9995C15.7624 35.7995 16.6269 37.3328 16.9594 37.9995L22.9447 41.9995L28.93 39.9995L34.9153 35.9995L36.9104 27.9995V17.9995H33.9178L24.9398 18.9995L18.9545 17.9995Z" fill="#FF6854"/>
<path d="M12.9678 16.999V29.0284C12.9678 35.6396 18.3272 40.999 24.9384 40.999V40.999V40.999C31.5495 40.999 36.9089 35.6396 36.9089 29.0284V16.999" stroke="#FF6854" stroke-width="3.33333" stroke-linecap="round" stroke-linejoin="round"/>
<path d="M36.9082 7.99951C36.9082 7.99951 29.6124 8.99951 24.9376 8.99951C20.2628 8.99951 12.967 7.99951 12.967 7.99951" stroke="#3AC4E5" stroke-width="3.33333" stroke-linecap="round" stroke-linejoin="round"/>
<path d="M36.9138 17.9993C36.9138 17.9993 29.618 18.9993 24.9432 18.9993C20.2684 18.9993 12.9726 17.9993 12.9726 17.9993" stroke="#FF6854" stroke-width="3.33333" stroke-linecap="round" stroke-linejoin="round"/>
<path d="M73.3024 33.5998H69.6972L68.3505 17.9342L62.8235 33.5998H60.5089L55.0099 17.9342L53.6632 33.5998H50.0439L51.6712 13.4482H56.7774L61.6592 27.1732L66.569 13.4482H71.6892L73.3024 33.5998Z" fill="#343E61"/>
<path d="M88.593 29.6061C88.593 31.2279 88.7146 32.4326 88.9577 33.2201V33.5998H85.6331L85.2964 31.9967C84.782 32.6248 84.1134 33.0982 83.2904 33.417C82.4768 33.7264 81.6257 33.8811 80.7373 33.8811C80.1481 33.8811 79.601 33.8061 79.096 33.6561C78.591 33.5154 78.1281 33.2951 77.7072 32.9951C77.2864 32.6951 76.9544 32.2826 76.7112 31.7576C76.4774 31.2326 76.3605 30.6232 76.3605 29.9295C76.3605 29.217 76.4821 28.5982 76.7253 28.0732C76.9684 27.5482 77.3331 27.117 77.8194 26.7795C78.3151 26.4326 78.8528 26.1514 79.4327 25.9357C80.0125 25.7201 80.7139 25.5279 81.5369 25.3592L83.9076 24.867C84.3846 24.7639 84.7259 24.6186 84.9317 24.4311C85.1374 24.2436 85.2403 23.9904 85.2403 23.6717C85.2403 23.2873 85.1655 22.9545 85.0158 22.6732C84.8662 22.3826 84.6605 22.1623 84.3986 22.0123C84.1461 21.8529 83.8702 21.7404 83.5709 21.6748C83.2717 21.5998 82.9537 21.5623 82.617 21.5623C80.8869 21.5623 79.9049 22.3311 79.6711 23.8686L76.5569 23.2779C77.1087 20.4842 79.1895 19.0873 82.7994 19.0873C83.4073 19.0873 83.9731 19.1295 84.4968 19.2139C85.0205 19.2982 85.5395 19.4576 86.0539 19.692C86.5776 19.9264 87.0172 20.2264 87.3725 20.592C87.7373 20.9576 88.0319 21.4451 88.2563 22.0545C88.4808 22.6639 88.593 23.367 88.593 24.1639V29.6061ZM81.8174 31.4482C82.949 31.4482 83.8281 31.0779 84.4547 30.3373C85.0906 29.5967 85.4086 28.4576 85.4086 26.9201L81.9577 27.8061C81.2189 27.9654 80.6578 28.1904 80.2744 28.4811C79.9003 28.7623 79.7132 29.1654 79.7132 29.6904C79.7132 30.2623 79.9096 30.6982 80.3024 30.9982C80.6952 31.2982 81.2002 31.4482 81.8174 31.4482Z" fill="#343E61"/>
<path d="M96.1541 21.6889C96.5188 20.9951 97.1267 20.4092 97.9777 19.9311C98.8381 19.4436 99.764 19.1951 100.755 19.1857V22.3639C99.2309 22.3639 98.1087 22.6732 97.3886 23.292C96.6684 23.9014 96.3084 24.9514 96.3084 26.442V33.5998H92.7874V19.3545H96.1541V21.6889Z" fill="#343E61"/>
<path d="M112.511 19.3545H116.018V33.5998H112.693L112.595 31.842C112.118 32.4982 111.496 33.0045 110.729 33.3607C109.972 33.7076 109.116 33.8811 108.162 33.8811C106.525 33.8811 105.254 33.4545 104.346 32.6014C103.449 31.7389 103 30.5201 103 28.9451V19.3545H106.507V28.1857C106.507 29.1514 106.759 29.8686 107.264 30.3373C107.779 30.7967 108.438 31.0264 109.242 31.0264C110.196 31.0264 110.977 30.7357 111.585 30.1545C112.193 29.5732 112.501 28.6639 112.511 27.4264V19.3545Z" fill="#343E61"/>
<path d="M128.306 19.0732C129.934 19.0732 131.201 19.5045 132.108 20.367C133.015 21.2201 133.469 22.4342 133.469 24.0092V33.5998H129.962V24.7686C129.962 23.7936 129.704 23.0764 129.19 22.617C128.685 22.1576 128.035 21.9279 127.24 21.9279C126.286 21.9279 125.501 22.2186 124.883 22.7998C124.276 23.3811 123.967 24.2904 123.958 25.5279V33.5998H120.451V19.3545H123.958V20.9998C124.977 19.7154 126.427 19.0732 128.306 19.0732Z" fill="#343E61"/>
<path d="M143.906 33.867C141.726 33.867 139.94 33.1826 138.547 31.8139C137.153 30.4451 136.457 28.6592 136.457 26.4561C136.457 24.2529 137.153 22.4717 138.547 21.1123C139.94 19.7529 141.726 19.0732 143.906 19.0732C145.654 19.0732 147.137 19.5186 148.352 20.4092C149.568 21.2904 150.358 22.5326 150.723 24.1357L147.483 24.5295C147.23 23.6576 146.786 22.9967 146.15 22.5467C145.523 22.0967 144.766 21.8717 143.877 21.8717C142.718 21.8717 141.773 22.2936 141.044 23.1373C140.314 23.9811 139.95 25.0873 139.95 26.4561C139.95 27.8342 140.314 28.9451 141.044 29.7889C141.773 30.6232 142.718 31.0404 143.877 31.0404C144.766 31.0404 145.523 30.8154 146.15 30.3654C146.786 29.9154 147.23 29.2545 147.483 28.3826L150.723 28.7764C150.358 30.3795 149.559 31.6311 148.324 32.5311C147.099 33.4217 145.626 33.867 143.906 33.867Z" fill="#343E61"/>
<path d="M162.366 19.3545H166L157.4 40.3076H153.837L156.952 33.0936L151.214 19.3545H155.044L158.621 29.2545L162.366 19.3545Z" fill="#343E61"/>
</svg>
