<svg width="361" height="85" viewBox="0 0 361 85" fill="none" xmlns="http://www.w3.org/2000/svg">
<path d="M18.2752 27.2354H4.32503L2 57.4412C3.55002 59.7648 7.11506 64.8765 8.97508 66.7353C10.8351 68.5942 12.8501 72.1569 13.6251 73.7059L27.5753 83L41.5255 78.353L55.4756 69.0589L60.1257 50.4706V27.2354H53.1506L32.2254 29.5589L18.2752 27.2354Z" fill="#FF6854"/>
<path d="M4.32129 24.9106V52.775C4.32129 68.1839 16.8127 80.6753 32.2216 80.6753V80.6753V80.6753C47.6306 80.6753 60.122 68.1839 60.122 52.775V24.9106" stroke="#FF6854" stroke-width="7.77778" stroke-linecap="round" stroke-linejoin="round"/>
<path d="M60.1208 4.0002C60.1208 4.0002 43.1163 6.32373 32.2205 6.32373C21.3248 6.32373 4.32018 4.0002 4.32018 4.0002" stroke="#3AC4E5" stroke-width="7.77778" stroke-linecap="round" stroke-linejoin="round"/>
<path d="M60.1345 27.2341C60.1345 27.2341 43.1299 29.5576 32.2342 29.5576C21.3384 29.5576 4.33386 27.2341 4.33386 27.2341" stroke="#FF6854" stroke-width="7.77778" stroke-linecap="round" stroke-linejoin="round"/>
<path d="M144.947 63.4834H136.544L133.405 27.0839L120.523 63.4834H115.128L102.312 27.0839L99.1728 63.4834H90.7373L94.53 16.6606H106.431L117.809 48.5511L129.253 16.6606H141.187L144.947 63.4834Z" fill="white"/>
<path d="M180.585 54.2038C180.585 57.9723 180.868 60.7714 181.435 62.6012V63.4834H173.686L172.902 59.7585C171.703 61.2179 170.144 62.318 168.226 63.0586C166.33 63.7775 164.346 64.1369 162.276 64.1369C160.902 64.1369 159.627 63.9626 158.45 63.6141C157.273 63.2873 156.194 62.7754 155.213 62.0784C154.232 61.3813 153.459 60.4229 152.892 59.203C152.347 57.9832 152.074 56.5673 152.074 54.9553C152.074 53.2998 152.358 51.8621 152.925 50.6423C153.491 49.4224 154.341 48.4204 155.475 47.6362C156.63 46.8302 157.883 46.1767 159.235 45.6757C160.586 45.1747 162.221 44.7281 164.139 44.3361L169.665 43.1924C170.776 42.9528 171.572 42.6152 172.052 42.1795C172.531 41.7439 172.771 41.1557 172.771 40.4151C172.771 39.522 172.596 38.7487 172.248 38.0952C171.899 37.4199 171.419 36.908 170.809 36.5595C170.221 36.1892 169.578 35.9278 168.88 35.7753C168.183 35.601 167.441 35.5139 166.657 35.5139C162.624 35.5139 160.336 37.3001 159.791 40.8725L152.532 39.5002C153.818 33.0089 158.668 29.7632 167.082 29.7632C168.499 29.7632 169.817 29.8612 171.038 30.0572C172.259 30.2533 173.468 30.6236 174.667 31.1682C175.888 31.7128 176.912 32.4098 177.741 33.2594C178.591 34.1089 179.277 35.2416 179.8 36.6575C180.324 38.0734 180.585 39.7071 180.585 41.5587V54.2038ZM164.793 58.4842C167.431 58.4842 169.479 57.6237 170.94 55.9029C172.422 54.182 173.163 51.5354 173.163 47.9629L165.12 50.0214C163.398 50.3918 162.09 50.9145 161.197 51.5898C160.325 52.2433 159.889 53.18 159.889 54.3998C159.889 55.7286 160.346 56.7415 161.262 57.4386C162.177 58.1356 163.354 58.4842 164.793 58.4842Z" fill="white"/>
<path d="M198.208 35.808C199.058 34.196 200.475 32.8346 202.459 31.7236C204.464 30.5909 206.622 30.0137 208.932 29.9919V37.3764C205.379 37.3764 202.764 38.0952 201.085 39.5329C199.407 40.9488 198.568 43.3885 198.568 46.852V63.4834H190.361V30.384H198.208V35.808Z" fill="white"/>
<path d="M236.331 30.384H244.505V63.4834H236.756L236.527 59.3991C235.416 60.9239 233.966 62.1002 232.179 62.9279C230.413 63.7339 228.419 64.1369 226.196 64.1369C222.381 64.1369 219.417 63.1457 217.302 61.1635C215.21 59.1594 214.164 56.3276 214.164 52.6681V30.384H222.338V50.9037C222.338 53.1473 222.926 54.8137 224.103 55.9029C225.302 56.9702 226.839 57.5039 228.713 57.5039C230.936 57.5039 232.757 56.8287 234.173 55.4781C235.59 54.1276 236.309 52.0146 236.331 49.1392V30.384Z" fill="white"/>
<path d="M273.147 29.7305C276.939 29.7305 279.893 30.7325 282.007 32.7366C284.122 34.7188 285.179 37.5397 285.179 41.1993V63.4834H277.005V42.9637C277.005 40.6983 276.405 39.0319 275.206 37.9645C274.029 36.8971 272.515 36.3634 270.662 36.3634C268.438 36.3634 266.608 37.0387 265.169 38.3893C263.752 39.7398 263.033 41.8528 263.011 44.7281V63.4834H254.837V30.384H263.011V34.2069C265.387 31.2226 268.765 29.7305 273.147 29.7305Z" fill="white"/>
<path d="M309.504 64.1042C304.426 64.1042 300.262 62.514 297.015 59.3337C293.767 56.1534 292.143 52.0037 292.143 46.8847C292.143 41.7656 293.767 37.6269 297.015 34.4683C300.262 31.3098 304.426 29.7305 309.504 29.7305C313.58 29.7305 317.035 30.7652 319.869 32.8346C322.702 34.8822 324.544 37.7685 325.394 41.4934L317.842 42.4083C317.253 40.3824 316.218 38.8467 314.736 37.8011C313.275 36.7555 311.51 36.2327 309.439 36.2327C306.736 36.2327 304.535 37.213 302.834 39.1735C301.134 41.1339 300.284 43.7043 300.284 46.8847C300.284 50.0868 301.134 52.6681 302.834 54.6286C304.535 56.5673 306.736 57.5366 309.439 57.5366C311.51 57.5366 313.275 57.0138 314.736 55.9682C316.218 54.9226 317.253 53.3869 317.842 51.3611L325.394 52.276C324.544 56.0009 322.681 58.9089 319.803 61.0001C316.948 63.0695 313.515 64.1042 309.504 64.1042Z" fill="white"/>
<path d="M352.532 30.384H361L340.958 79.0692H332.653L339.911 62.3071L326.539 30.384H335.465L343.802 53.3869L352.532 30.384Z" fill="white"/>
</svg>
