<svg width="57" height="62" viewBox="0 0 57 62" fill="none" xmlns="http://www.w3.org/2000/svg">
<g opacity="0.5">
<path fill-rule="evenodd" clip-rule="evenodd" d="M37.9286 57.8581C43.3713 56.3417 49.0696 55.5768 54.5973 54.876C55.7879 54.7291 56.8932 55.5489 56.9783 56.7039C57.1484 57.8598 56.2975 58.9169 55.1919 59.0638C49.8343 59.7384 44.3071 60.4602 39.1195 61.92C38.014 62.2366 36.8229 61.5849 36.4827 60.4636C36.1425 59.3432 36.823 58.1756 37.9286 57.8581Z" fill="#FF6854"/>
<path fill-rule="evenodd" clip-rule="evenodd" d="M21.4312 36.3597C30.1905 27.4852 40.0553 19.7531 48.6445 10.6406C49.4099 9.78951 50.7706 9.74391 51.621 10.5384C52.4714 11.3337 52.5561 12.6711 51.7057 13.5222C43.1165 22.6609 33.2516 30.4183 24.4923 39.319C23.6419 40.1498 22.2816 40.1616 21.4312 39.3443C20.6658 38.5278 20.5807 37.1905 21.4312 36.3597Z" fill="#FF6854"/>
<path fill-rule="evenodd" clip-rule="evenodd" d="M5.01697 2.22538C4.76184 7.3047 4.50722 12.384 4.25209 17.4642C4.25209 18.6276 3.23109 19.526 2.0405 19.4694C0.84992 19.412 0 18.4216 0 17.2573C0.255125 12.1696 0.509752 7.08264 0.764878 1.99572C0.84992 0.832277 1.87059 -0.0601507 3.06117 0.0031719C4.16672 0.0664945 5.10201 1.06277 5.01697 2.22538Z" fill="#FF6854"/>
</g>
</svg>
