<svg width="171" height="102" viewBox="0 0 171 102" fill="none" xmlns="http://www.w3.org/2000/svg">
<g opacity="0.3">
<path fill-rule="evenodd" clip-rule="evenodd" d="M123.294 97.0369C138.561 97.406 154.163 96.6678 168.762 101.903C169.632 102.211 170.589 101.762 170.903 100.889C171.211 100.017 170.763 99.0571 169.893 98.7416C154.953 93.3858 138.996 94.057 123.374 93.6811C122.451 93.6543 121.681 94.3926 121.661 95.3187C121.634 96.2449 122.37 97.01 123.294 97.0369Z" fill="#FF6854"/>
<path fill-rule="evenodd" clip-rule="evenodd" d="M121.921 74.8103C126.68 70.4196 131.874 67.1303 138.153 65.5001C139.049 65.2679 139.585 64.3517 139.357 63.4551C139.123 62.5584 138.206 62.0195 137.316 62.2517C130.489 64.0235 124.833 67.5686 119.659 72.3398C118.976 72.9666 118.929 74.0291 119.559 74.711C120.181 75.3922 121.245 75.4371 121.921 74.8103Z" fill="#FF6854"/>
<path fill-rule="evenodd" clip-rule="evenodd" d="M108.682 26.8747C110.864 19.3746 115.161 13.5074 121.747 9.27042C122.524 8.77041 122.751 7.73148 122.249 6.95227C121.754 6.17307 120.717 5.9462 119.94 6.44621C112.651 11.1376 107.886 17.6303 105.469 25.9344C105.208 26.823 105.724 27.756 106.607 28.015C107.497 28.2748 108.428 27.7633 108.682 26.8747Z" fill="#FF6854"/>
<path fill-rule="evenodd" clip-rule="evenodd" d="M33.4831 16.696C32.1846 18.2282 31.02 19.8792 30.0294 21.637C29.5876 22.4195 28.8112 24.0826 28.6907 25.5088C28.5568 27.0283 29.0722 28.3103 30.3974 28.9854C32.1578 29.8808 33.5634 29.7875 34.6477 29.2458C35.6919 28.7257 36.5084 27.7035 37.0238 26.333C38.0077 23.7135 37.8605 19.7101 37.3451 17.4255C38.7306 15.9919 40.25 14.6919 41.8764 13.5362C53.9913 4.92864 71.762 8.10253 85.4364 20.9725C90.2221 25.4786 92.5246 34.9419 93.7227 45.1521C95.5901 61.0497 94.5259 78.8057 94.3786 84.0078C94.3452 85.2924 94.4656 86.0548 94.5326 86.2071C94.8472 86.9561 95.4027 87.1508 95.7909 87.2246C96.3532 87.3253 96.8016 87.2179 97.163 87.03C97.6516 86.7723 98.0533 86.3185 98.2407 85.6185C98.3411 85.2319 98.3678 84.6937 98.3544 84.1199C98.341 83.7219 98.2607 83.287 98.341 83.0017C98.8631 81.1748 99.4923 79.3909 100.108 77.5942C102.163 71.5546 104.82 65.8947 107.772 60.2416C117.149 42.2789 126.219 23.2994 141.593 9.61396C142.282 8.99985 142.349 7.9381 141.734 7.24547C141.125 6.55284 140.067 6.48974 139.371 7.10451C123.689 21.0604 114.371 40.3668 104.807 58.6852C102.297 63.494 99.9943 68.3095 98.08 73.3465C98.2741 64.4363 98.2005 52.1026 96.574 41.1896C95.1282 31.4841 92.3773 22.9068 87.7255 18.5262C72.7459 4.42729 53.2082 1.36887 39.9421 10.7986C38.5231 11.808 37.1711 12.9181 35.9128 14.1221C28.9718 1.5548 14.1127 -3.48223 0.980457 2.5286C0.137103 2.91318 -0.231022 3.90917 0.150496 4.75147C0.538707 5.59376 1.52928 5.9656 2.37263 5.58103C14.2064 0.164832 27.6265 4.99845 33.4831 16.696ZM34.4536 20.9034C33.9114 21.6712 33.4094 22.4672 32.9409 23.29C32.6933 23.7316 32.2649 24.5807 32.0842 25.4115C32.044 25.6062 32.0373 25.9109 32.0373 26.0518C32.4992 26.28 32.8606 26.3901 33.1551 26.2418C33.5232 26.0592 33.7107 25.6297 33.8914 25.1498C34.3465 23.9457 34.4938 22.3497 34.4536 20.9034Z" fill="#FF6854"/>
</g>
</svg>
