<svg width="146" height="131" viewBox="0 0 146 131" fill="none" xmlns="http://www.w3.org/2000/svg">
<g opacity="0.2">
<path d="M26.3696 31.948C22.5511 31.948 19.8595 29.5067 19.6091 25.8761C19.4213 23.7478 20.0473 21.8073 21.2366 20.0546C22.4885 18.3018 25.2428 16.9873 27.4337 18.3018C27.6215 18.427 27.8719 18.4896 28.1223 18.5522C31.0018 18.8652 33.5682 22.0577 33.5056 25.3753C33.443 28.5678 30.814 31.322 27.4337 31.8228C27.0581 31.8854 26.6199 31.948 26.3696 31.948Z" fill="#FF6854"/>
<path d="M56.6037 12.9185C52.2845 12.9185 49.4676 9.41311 50.4692 5.1565C50.7822 3.71677 51.4707 2.40223 52.5349 1.40067C53.7242 0.273924 55.1014 -0.289451 56.7915 0.148729C57.5427 0.336521 58.2938 0.336521 58.9824 0.524312C61.4863 1.02509 63.239 2.52742 63.865 5.03131C64.5535 7.53519 63.6146 9.5383 61.7367 11.1658C60.2969 12.4178 58.5442 12.9185 56.6037 12.9185Z" fill="#FF6854"/>
<path d="M14.7895 49.7881C14.7269 53.9821 10.7833 56.6738 6.96483 55.0463C1.70667 52.8554 1.20589 47.159 3.52198 43.5284C4.08536 42.652 4.89912 42.0887 5.90067 41.7757C6.77703 41.5253 7.71599 41.4627 8.34196 42.0261C9.34352 42.965 10.5955 43.278 11.6596 43.9666C13.6001 45.2185 14.7895 47.4094 14.7895 49.7881Z" fill="#FF6854"/>
<path d="M23.5526 114.263C18.983 114.263 15.6028 110.633 15.8531 106.439C16.0409 103.497 17.9188 102.057 20.7983 102.746C21.2365 102.871 21.6747 102.808 22.1129 102.871C22.9266 102.933 23.803 102.933 24.6167 103.058C27.4962 103.559 29.5619 105.875 29.5619 108.63C29.5619 111.196 27.4962 113.575 24.7419 114.201C24.3038 114.201 23.803 114.201 23.5526 114.263Z" fill="#FF6854"/>
<path d="M12.0973 78.0822C12.0973 80.3357 11.4088 82.2137 9.90644 83.716C7.84073 85.7817 4.83607 85.9695 2.58257 84.0916C-0.234297 81.8381 -0.860268 77.1433 1.26803 74.3264C2.83296 72.2607 5.08646 71.8851 7.46515 72.3859C9.90644 72.8867 11.3462 74.5142 11.9095 76.9555C12.0347 77.3937 12.0973 77.8319 12.0973 78.0822Z" fill="#FF6854"/>
<path d="M78.7002 123.903C78.7002 120.648 81.1415 118.27 84.5843 118.27C88.5905 118.27 91.47 120.899 91.47 124.592C91.47 127.847 88.6531 130.476 85.2103 130.539C81.5171 130.539 78.7002 127.659 78.7002 123.903Z" fill="#FF6854"/>
<path d="M52.0342 129.412C48.0906 129.412 44.2721 125.593 44.3347 121.65C44.3347 118.895 46.463 117.393 49.0921 118.207C49.7181 118.395 50.4693 118.395 51.1578 118.395C54.0373 118.27 56.1656 119.584 57.1046 122.025C58.5443 125.719 56.0404 129.474 52.0342 129.412Z" fill="#FF6854"/>
<path d="M126.838 111.885C126.838 114.639 124.522 117.08 121.643 117.393C119.139 117.643 116.51 116.141 115.571 113.825C114.945 112.323 115.007 110.883 115.946 109.568C116.009 109.443 116.134 109.318 116.197 109.193C118.325 106.251 121.518 105.687 124.585 107.691C126.025 108.692 126.838 110.194 126.838 111.885Z" fill="#FF6854"/>
<path d="M78.0742 8.47412C78.0742 7.15958 78.3872 6.09543 79.0758 5.09388C80.3277 3.21596 82.3308 2.71519 84.3339 3.77934C85.1477 4.21752 85.8989 4.6557 86.65 5.21907C88.2776 6.53361 88.9661 8.22373 88.4653 10.2894C87.9646 12.4177 86.5248 13.7323 84.3339 14.1705C82.2682 14.546 80.5781 13.7949 79.3262 12.1674C78.4498 11.0406 78.0742 9.78866 78.0742 8.47412Z" fill="#FF6854"/>
<path d="M139.483 78.9586C142.8 78.896 145.367 81.6502 145.304 84.5923C145.242 86.345 144.616 87.7848 143.301 88.9741C140.547 91.478 136.353 90.1635 135.539 86.5328C135.351 85.7191 135.289 84.7801 135.539 84.0289C135.915 82.777 136.541 81.5251 137.167 80.3357C137.793 79.3342 138.857 78.9586 139.483 78.9586Z" fill="#FF6854"/>
<path d="M91.4078 49.7883C91.4078 49.6005 91.3452 49.3501 91.3452 49.0997C91.22 47.034 92.3468 45.6569 94.2873 45.2187C96.979 44.6553 99.9836 46.4706 100.547 49.0371C101.173 51.7288 99.4203 54.3579 96.666 55.0464C93.8491 55.735 90.7819 53.6067 91.2826 50.4142C91.3452 50.2264 91.3452 50.0387 91.4078 49.7883Z" fill="#FF6854"/>
<path d="M41.2676 38.7086C41.3302 36.7681 41.831 35.2658 43.0829 34.1391C45.2112 32.1985 48.1533 32.8871 49.0922 35.2032C49.3426 35.7666 49.6556 36.2674 49.9686 36.7681C50.8449 38.4583 50.9075 40.1484 49.7808 41.7133C48.7166 43.2156 47.2143 43.9042 45.3364 43.5912C43.3333 43.2782 42.1439 42.0263 41.518 40.211C41.3928 39.585 41.3302 39.0216 41.2676 38.7086Z" fill="#FF6854"/>
<path d="M65.2424 93.8567C66.9325 94.6079 69.1234 95.1086 70.3128 97.1743C71.2517 98.8645 70.8762 100.93 69.4364 102.433C67.9341 103.935 65.7432 104.31 63.9279 103.434C61.2988 102.12 60.172 98.4889 61.6118 95.9224C62.3003 94.6079 63.4897 93.8567 65.2424 93.8567Z" fill="#FF6854"/>
<path d="M92.41 99.1148C89.7183 99.1148 87.5274 96.8613 87.6526 94.1697C87.7152 93.1055 88.0282 91.9788 88.5289 91.0398C89.2801 89.5375 90.7198 88.9741 92.2848 89.2871C93.3489 89.4749 94.4131 89.9131 95.2894 90.539C97.1673 91.791 97.8559 93.8567 97.2299 95.7346C96.604 97.7377 94.5383 99.1148 92.41 99.1148Z" fill="#FF6854"/>
<path d="M30.1875 58.1137C30.1875 56.7365 30.5631 55.5472 31.5646 54.6082C33.1296 53.1685 35.3831 53.2937 36.6976 54.9212C37.1358 55.4846 37.574 55.9854 38.0747 56.4862C38.8259 57.2373 39.3893 58.1137 39.6397 59.1778C40.2656 62.1199 37.8244 64.6238 34.8823 64.0604C32.3158 63.6222 30.2501 60.9931 30.1875 58.1137Z" fill="#FF6854"/>
<path d="M109.248 26.1266C107.433 26.1266 105.868 24.9999 105.43 23.1846C105.242 22.3708 104.929 21.6196 104.365 20.9311C103.051 19.3661 103.552 17.1752 105.367 16.2363C105.743 16.0485 106.181 15.8607 106.619 15.7981C109.561 15.4225 113.066 18.1142 113.379 21.0563C113.692 23.7479 111.752 26.1266 109.248 26.1266Z" fill="#FF6854"/>
<path d="M67.3705 31.8229C67.3705 33.3252 67.1201 34.452 66.3689 35.5161C64.804 37.7696 61.7367 37.9574 59.9214 35.8291C58.4191 34.139 58.2939 31.7603 59.4832 29.8824C59.7336 29.4442 59.984 29.006 60.1718 28.5679C61.1734 26.064 63.9902 25.5006 65.8055 27.5037C67.0575 28.8182 67.3705 30.3832 67.3705 31.8229Z" fill="#FF6854"/>
<path d="M128.59 39.2095C128.59 41.5882 126.837 43.4661 124.521 43.6539C122.017 43.8417 119.827 42.0263 119.576 39.4599C119.451 38.5209 119.514 37.5819 119.576 36.643C119.764 35.0155 121.079 33.8887 122.769 33.7635C125.586 33.5131 128.653 36.3926 128.59 39.2095Z" fill="#FF6854"/>
<path d="M141.861 57.613C141.861 59.9917 139.983 62.12 137.542 62.3704C135.288 62.6208 133.098 61.1185 132.659 58.865C132.346 57.3627 132.722 55.8603 133.348 54.5458C133.598 53.9824 134.287 53.4816 134.85 53.1686C137.792 51.7289 141.861 54.2954 141.861 57.613Z" fill="#FF6854"/>
<path d="M112.691 73.3872C112.691 75.4529 111.377 77.2056 109.373 77.6438C107.495 78.082 105.618 77.0805 104.741 75.2025C104.491 74.7018 104.178 74.1384 103.802 73.7002C102.488 71.8849 103.114 69.5062 105.179 68.5672C108.434 67.1275 112.691 69.8818 112.691 73.3872Z" fill="#FF6854"/>
<path d="M82.457 36.3924C82.457 36.5802 82.457 36.8306 82.3944 37.1436C82.0814 39.2719 80.5791 40.7742 78.6386 40.7742C76.7607 40.7742 75.1957 39.3971 74.8202 37.394C74.6324 36.2672 74.382 35.1405 74.1942 34.0137C73.9438 32.6992 74.2568 31.5098 75.3835 30.6961C76.5729 29.8197 77.8248 29.8823 79.0768 30.5709C80.7669 31.4472 82.457 34.2641 82.457 36.3924Z" fill="#FF6854"/>
<path d="M48.5918 85.1556C48.4666 86.7831 47.6528 88.1602 45.9627 88.9114C44.2726 89.6626 42.6451 89.4122 41.2053 88.1602C39.5152 86.7205 38.9518 84.0288 39.8908 81.9631C40.8298 79.8974 43.1459 79.0836 45.2116 80.1478C47.3399 81.2119 48.5918 83.0273 48.5918 85.1556Z" fill="#FF6854"/>
<path d="M63.2392 58.6771C63.1766 59.6161 63.1766 60.2421 63.114 60.8054C62.8636 62.3078 61.9873 63.3093 60.4849 63.7475C59.0452 64.1231 57.7933 63.6849 56.8543 62.6208C55.1016 60.7429 55.2894 57.4878 57.0421 55.7351C58.2314 54.6083 59.9216 54.2953 61.3613 54.9839C62.7384 55.6099 63.3644 56.9244 63.3018 58.552C63.2392 58.7397 63.2392 58.8649 63.2392 58.6771Z" fill="#FF6854"/>
<path d="M79.0132 81.525C79.0132 83.1525 77.8238 84.5297 76.1337 84.9053C74.5062 85.2809 73.0665 84.8427 71.8771 83.5907C70.7504 82.3388 70.3748 80.8991 70.813 79.2715C71.1885 77.8944 72.1275 77.018 73.5046 76.705C74.8192 76.3921 75.9459 76.8302 76.8849 77.8318C77.2605 78.27 77.6986 78.7082 78.0742 79.1463C78.7628 79.8349 79.0758 80.5861 79.0132 81.525Z" fill="#FF6854"/>
<path d="M63.0516 75.0148C62.989 77.0179 62.363 78.2072 60.9859 78.8958C59.6087 79.5843 58.2316 79.3966 57.0422 78.4576C55.2269 77.0805 54.7887 74.2636 55.9781 72.3231C57.4178 70.007 60.5477 70.007 61.9248 72.3857C62.4882 73.262 62.8012 74.3888 63.0516 75.0148Z" fill="#FF6854"/>
<path d="M85.7747 63.2466C85.7747 65.1245 84.7106 66.6894 83.0831 67.1276C81.4555 67.5658 79.7028 66.8146 78.8264 65.1871C78.2631 64.1855 78.0127 63.0588 78.2631 61.8694C78.5761 60.3671 79.4524 59.3655 80.9548 58.99C82.3945 58.6144 83.5838 59.1152 84.5854 60.1793C85.3992 60.9931 85.7121 62.1198 85.7747 63.2466Z" fill="#FF6854"/>
<path d="M76.0716 55.9228C74.0058 55.9228 72.1279 53.9822 72.1279 51.8539C72.1279 49.976 73.5677 48.5363 75.4456 48.5989C77.8869 48.5989 79.7648 50.2264 79.7648 52.2295C79.7648 54.17 78.0747 55.9228 76.0716 55.9228Z" fill="#FF6854"/>
</g>
</svg>
